<svg width="65" height="65" viewBox="0 0 65 65" fill="none" xmlns="http://www.w3.org/2000/svg">
<circle cx="32.6457" cy="32.6457" r="32" fill="#0080C8"/>
<g clip-path="url(#clip0_203_2)">
<path d="M46.4355 31.5425C44.9467 27.8911 42.5684 27.9711 41.4825 28.2342C41.1201 28.3221 40.7428 28.2148 40.4759 27.9547C39.1106 26.6234 37.6476 26.644 36.5569 26.9712C36.4167 27.0133 36.2824 27.0606 36.1553 27.1105C36.1275 27.1215 36.0994 27.1312 36.0715 27.1396C35.4278 27.3327 34.7601 26.858 34.7317 26.1705C34.579 22.4765 34.4619 13.944 34.4619 13.944C34.5327 11.6441 32.3905 10.7017 30.7203 11.2026C29.6822 11.5141 28.8263 12.383 28.7972 13.8303L28.7927 25.2414C28.7924 26.0106 28.2917 26.5476 27.6844 26.7298C27.0875 26.9089 26.3875 26.7452 25.9586 26.1225L20.1583 17.703C19.3546 16.3237 18.0287 16.0107 16.8852 16.3537C15.2565 16.8424 13.9974 18.6616 15.1428 20.6264L22.4189 33.1175C22.7093 33.6159 22.5438 34.2519 22.0504 34.5506C21.0816 35.1371 19.8098 36.4602 20.4263 39.2394C21.1796 42.635 28.0156 47.6285 29.36 48.7106C29.5044 48.8268 29.6152 48.9785 29.6821 49.1516L31.539 53.536C31.7372 54.0492 32.291 54.3028 32.818 54.1447L45.0836 50.4649C45.6147 50.3055 45.9375 49.7824 45.814 49.2418L44.9757 44.9904C44.9337 44.8068 44.9428 44.6215 45.0002 44.442C45.4996 42.8788 48.1502 35.7481 46.4355 31.5425Z" fill="white"/>
</g>
<defs>
<clipPath id="clip0_203_2">
<rect width="27.1673" height="41.7337" fill="white" transform="translate(13.5507 16.3538) rotate(-16.7)"/>
</clipPath>
</defs>
</svg>
