<svg width="21" height="21" viewBox="0 0 21 21" fill="none" xmlns="http://www.w3.org/2000/svg">
<g clip-path="url(#clip0_104_94)">
<path d="M9.82036 1.23877C9.46168 1.35322 9.18091 1.52983 8.90014 1.8211C8.74411 1.98217 7.4755 4.1815 4.56406 9.32839C2.29732 13.3316 0.404802 16.7162 0.352932 16.8462C-0.151278 18.1459 0.732402 19.5963 2.15179 19.8044C2.65096 19.8721 18.3415 19.8721 18.8407 19.8044C19.8596 19.6537 20.6032 18.9103 20.7488 17.8911C20.858 17.1112 21.0814 17.5583 16.4595 9.38026C12.1184 1.7119 12.1287 1.73269 11.614 1.43113C11.1201 1.13986 10.3714 1.06195 9.82036 1.23877ZM11.3177 5.01835C11.8011 5.25754 12.0039 5.80858 12.0039 6.90562C12.0039 7.64902 11.614 12.2138 11.51 12.7025C11.3592 13.3887 11.0888 13.6695 10.5638 13.6695C10.0906 13.6695 9.83065 13.3835 9.69037 12.6869C9.59671 12.2606 9.29515 7.88821 9.28486 6.83275C9.27436 5.89699 9.34198 5.63701 9.68512 5.28337C10.0854 4.86757 10.7927 4.75837 11.3177 5.01835ZM11.2761 15.0108C11.7855 15.2655 12.0403 15.7386 11.9884 16.3573C11.9313 17.1162 11.3126 17.6207 10.5274 17.5583C9.84115 17.5012 9.34723 17.0333 9.26932 16.3625C9.19141 15.6918 9.61771 15.0681 10.278 14.886C10.6003 14.7978 10.9224 14.8392 11.2761 15.0108Z" fill="#EFAE05"/>
</g>
<defs>
<clipPath id="clip0_104_94">
<rect width="21" height="21" fill="white"/>
</clipPath>
</defs>
</svg>
