<svg width="39" height="39" viewBox="0 0 39 39" fill="none" xmlns="http://www.w3.org/2000/svg">
<g clip-path="url(#clip0_123_8)">
<path d="M29.5096 18.6335C28.4314 15.91 26.6644 15.9513 25.8557 16.1385C25.5859 16.201 25.3065 16.1185 25.1102 15.9232C24.1063 14.924 23.0194 14.9282 22.2068 15.163C22.1023 15.1932 22.0022 15.2273 21.9075 15.2634C21.8867 15.2713 21.8658 15.2783 21.845 15.2843C21.3654 15.4228 20.8731 15.0652 20.8572 14.5543C20.7718 11.8094 20.7498 5.47082 20.7498 5.47082C20.8198 3.76307 19.2359 3.04684 17.9914 3.4062C17.218 3.62963 16.5757 4.26852 16.5431 5.34331L16.453 13.8191C16.4469 14.3904 16.0709 14.7854 15.6185 14.9161C15.1737 15.0446 14.655 14.9177 14.3412 14.452L10.097 8.15412C9.51049 7.1235 8.52802 6.88093 7.67608 7.12704C6.46258 7.47761 5.51356 8.81933 6.34933 10.2874L11.6588 19.6207C11.8707 19.9931 11.7429 20.4643 11.3742 20.6824C10.6501 21.1106 9.69543 22.0837 10.1322 24.1527C10.666 26.6805 15.7055 30.4415 16.6959 31.2555C16.8022 31.3429 16.8834 31.4565 16.9317 31.5855L18.2776 34.8562C18.421 35.2389 18.8304 35.4315 19.2231 35.3181L28.3615 32.6781C28.7572 32.5638 29.0009 32.1777 28.9133 31.7752L28.3229 28.611C28.2931 28.4743 28.3013 28.3367 28.3453 28.2038C28.7282 27.0466 30.7512 21.7703 29.5096 18.6335Z" fill="white"/>
</g>
<defs>
<clipPath id="clip0_123_8">
<rect width="31" height="31" fill="white" transform="translate(0 8.60373) rotate(-16.1134)"/>
</clipPath>
</defs>
</svg>
